<svg style="fill:#3D314A;" id="Capa_1" enable-background="new 0 0 511.927 511.927" height="512" viewBox="0 0 511.927 511.927" width="512" xmlns="http://www.w3.org/2000/svg"><g><path d="m155.953 221.945c17.427.709 34.976 1.064 52.525 1.064s35.099-.354 52.525-1.064c14.336-.584 26.254-11.827 27.724-26.153 1.134-11.06 1.134-22.274 0-33.334-1.47-14.327-13.388-25.57-27.724-26.153-34.854-1.419-70.197-1.419-105.05 0-14.336.583-26.255 11.827-27.725 26.153-1.134 11.06-1.134 22.274 0 33.334 1.471 14.326 13.389 25.57 27.725 26.153zm-12.802-57.957c.713-6.956 6.479-12.414 13.413-12.696 17.224-.701 34.569-1.051 51.915-1.051s34.691.351 51.915 1.051c6.933.282 12.699 5.74 13.412 12.696 1.03 10.044 1.03 20.229 0 30.273-.713 6.956-6.479 12.414-13.413 12.696-34.448 1.402-69.381 1.401-103.83 0-6.933-.283-12.699-5.741-13.412-12.696-1.03-10.043-1.03-20.229 0-30.273z"/><path d="m499.714 165.926c6.206-11.854 4.255-26.902-5.522-36.69l-17.183-17.184c-11.42-11.407-30.009-12.175-42.382-1.691-.262.227-.532.454-.804.684l-.534.451c-3.155 2.684-3.538 7.417-.854 10.572 2.685 3.156 7.418 3.537 10.572.854l.486-.411c.324-.273.645-.544.894-.76 6.404-5.424 16.077-5.023 22.019.911l17.177 17.177c6.034 6.042 6.423 15.508.904 22.021-22.153 26.14-66.305 77.725-118.317 135.752-16.411-21.828-35.706-41.124-57.534-57.534 44.291-39.699 84.884-74.854 111.672-97.803 3.146-2.695 3.511-7.43.816-10.575-2.694-3.145-7.429-3.511-10.575-.816-6.471 5.543-13.753 11.804-21.689 18.661-1.01-22.892-2.343-45.945-4.012-68.754-1.736-23.68-20.108-42.743-43.682-45.327-88.045-9.664-177.33-9.665-265.376 0-23.573 2.583-41.945 21.646-43.683 45.346l-.167 2.363h-4.717c-15.011 0-27.223 12.213-27.223 27.223s12.212 27.223 27.223 27.223h1.411c-.303 6.104-.583 12.23-.838 18.335h-.574c-15.01 0-27.222 12.213-27.222 27.224 0 14.646 11.627 26.621 26.135 27.195-.119 6.131-.212 12.278-.28 18.398-14.378.715-25.855 12.636-25.855 27.188s11.477 26.473 25.855 27.188c.068 6.12.161 12.267.28 18.398-14.508.574-26.135 12.549-26.135 27.195 0 15.011 12.212 27.223 27.223 27.223h.575c.253 6.094.532 12.22.837 18.335h-1.412c-15.011.001-27.223 12.213-27.223 27.223s12.212 27.223 27.223 27.223h4.717l.169 2.392c1.63 22.26 18.079 40.675 39.999 44.784.467.087.932.13 1.39.13 3.539 0 6.688-2.516 7.363-6.12.763-4.071-1.919-7.99-5.99-8.753-15.236-2.855-26.669-15.659-27.801-31.117l-.093-1.315h13.591c15.011 0 27.223-12.212 27.223-27.223s-12.212-27.223-27.223-27.223h-16.912c-.307-6.113-.59-12.24-.845-18.335h17.758c15.011 0 27.223-12.212 27.223-27.223s-12.212-27.223-27.223-27.223h-19.432c-.119-6.109-.213-12.236-.281-18.335h19.713c15.011 0 27.223-12.212 27.223-27.223s-12.212-27.223-27.223-27.223h-19.713c.068-6.099.162-12.226.281-18.335h19.431c15.011 0 27.223-12.212 27.223-27.223s-12.212-27.223-27.223-27.223h-17.76c.257-6.107.54-12.234.845-18.335h16.915c15.011 0 27.223-12.212 27.223-27.223s-12.211-27.225-27.222-27.225h-13.591l.091-1.286c1.207-16.464 13.974-29.717 30.358-31.513 86.96-9.545 175.145-9.545 262.104 0 16.383 1.795 29.15 15.049 30.357 31.512 1.948 26.618 3.447 53.578 4.486 80.209-24.085 20.925-52.647 46.027-82.65 73.007-.793.713-1.425 1.587-1.854 2.563-.725 1.653-17.54 40.094-27.002 70.726l-10.157 10.157c-9.646 9.646-9.646 25.34 0 34.985 4.672 4.673 10.885 7.246 17.493 7.246s12.82-2.573 17.493-7.246l10.154-10.154c30.633-9.462 69.078-26.279 70.731-27.004.977-.429 1.851-1.061 2.563-1.854 1.505-1.673 3.001-3.34 4.493-5.003-.912 40.099-2.835 80.547-5.749 120.52-1.207 16.457-13.976 29.71-30.358 31.514-78.148 8.575-157.423 9.451-235.618 2.604-4.123-.36-7.764 2.69-8.125 6.817s2.69 7.765 6.817 8.125c35.122 3.076 70.456 4.612 105.812 4.612 44.346 0 88.728-2.417 132.753-7.248 23.573-2.595 41.943-21.658 43.679-45.33 3.357-46.047 5.408-92.715 6.119-138.767 42.232-47.439 78.096-89.196 99.396-114.251 10.258 13.146 8.563 24.24-5.061 37.864-5.071 5.071-14.698 11.362-24.89 18.022-20.804 13.595-40.455 26.437-41.925 40.615-.365 3.526.228 8.757 5.127 13.657 1.464 1.465 3.384 2.197 5.303 2.197s3.839-.732 5.303-2.197c2.929-2.929 2.929-7.677 0-10.606-.878-.879-.839-1.255-.814-1.504.734-7.075 22.316-21.179 35.21-29.605 10.861-7.098 21.121-13.802 27.291-19.972 20.009-20.006 21.269-40.39 3.806-60.659zm-426.922 235.595c0 6.74-5.483 12.223-12.223 12.223h-33.346c-6.74 0-12.223-5.483-12.223-12.223s5.483-12.223 12.223-12.223h33.346c6.74.001 12.223 5.484 12.223 12.223zm0-72.781c0 6.74-5.483 12.223-12.223 12.223h-33.346c-6.74 0-12.223-5.483-12.223-12.223s5.483-12.223 12.223-12.223h33.346c6.74 0 12.223 5.483 12.223 12.223zm0-72.781c0 6.74-5.483 12.223-12.223 12.223h-33.346c-6.74 0-12.223-5.483-12.223-12.223s5.483-12.223 12.223-12.223h33.346c6.74 0 12.223 5.483 12.223 12.223zm0-72.781c0 6.74-5.483 12.223-12.223 12.223h-33.346c-6.74 0-12.223-5.483-12.223-12.223s5.483-12.223 12.223-12.223h33.346c6.74-.001 12.223 5.483 12.223 12.223zm0-72.782c0 6.74-5.483 12.223-12.223 12.223h-33.346c-6.74 0-12.223-5.483-12.223-12.223s5.483-12.223 12.223-12.223h33.346c6.74 0 12.223 5.484 12.223 12.223zm227.139 141.902c20.47 15.435 38.584 33.549 54.018 54.019-12.684 5.336-37.149 15.312-57.978 21.936l-17.976-17.976c6.624-20.829 16.6-45.295 21.936-57.979zm-29.726 93.482c-2.602 0-5.047-1.013-6.887-2.853-3.797-3.797-3.797-9.976 0-13.772l6.17-6.17 13.773 13.773-6.171 6.17c-1.838 1.839-4.284 2.852-6.885 2.852z"/></g></svg>