<svg style="fill:#3D314A;" id="Capa_1" enable-background="new 0 0 512 512" height="512" viewBox="0 0 512 512" width="512" xmlns="http://www.w3.org/2000/svg"><path d="m166.569 185.641-75.348 75.348c15.101 40.298 39.36 74.041 64.125 103.453l95.012-95.012c-45.056-2.854-80.934-38.732-83.789-83.789z"/><path d="m118.678 63.889c-26.568 31.373-42.678 71.873-42.678 116.111 0 17.102 2.357 32.904 5.647 48.142l100.642-100.642z"/><path d="m345.431 174.359 72.482-72.482c-17.688-36.509-47.28-66.101-83.789-83.789l-72.482 72.482c45.056 2.854 80.934 38.732 83.789 83.789z"/><path d="m219.485 132.726-10.759 10.759c-7.857 10.146-12.726 22.714-12.726 36.515 0 33.091 26.909 60 60 60 13.801 0 26.369-4.869 36.515-12.726l10.759-10.759c7.857-10.146 12.726-22.714 12.726-36.515 0-33.091-26.909-60-60-60-13.801 0-26.369 4.869-36.515 12.726z"/><path d="m324.392 237.819c-3.239 3.825-6.747 7.333-10.573 10.573l-138.845 138.845c1.448 1.641 2.957 3.387 4.385 5.004 33.077 37.398 61.641 71.697 61.641 104.759 0 8.291 6.709 15 15 15s15-6.709 15-15c0-33.062 28.564-67.361 61.641-104.759 46.054-52.075 103.359-116.865 103.359-212.241 0-16.382-2.391-32.184-6.511-47.278z"/><path d="m139.889 42.678 63.611 63.611 99.778-99.778c-15.094-4.12-30.896-6.511-47.278-6.511-44.238 0-84.738 16.11-116.111 42.678z"/></svg>